<svg width="275" height="64" viewBox="0 0 275 64" fill="none" xmlns="http://www.w3.org/2000/svg">
<g filter="url(#filter0_d_2_10)">
<path d="M27.872 17.208C27.744 16.696 27.616 16.2267 27.488 15.8C27.36 15.3733 27.232 14.968 27.104 14.584C26.1653 14.84 25.3973 15.288 24.8 15.928C24.2027 16.568 23.904 17.2933 23.904 18.104C23.904 18.8293 23.9893 19.4267 24.16 19.896L25.952 20.408C28.128 21.048 30.3253 21.8587 32.544 22.84C34.7627 23.7787 36.7893 24.9307 38.624 26.296C40.5013 27.6187 42.016 29.1973 43.168 31.032C44.32 32.824 44.896 34.872 44.896 37.176C44.896 42.424 43.424 46.584 40.48 49.656C37.5787 52.728 33.4613 54.4987 28.128 54.968C27.7867 55.0107 27.424 55.032 27.04 55.032C26.6987 55.0747 26.3573 55.096 26.016 55.096C24.3947 55.096 22.7307 54.8613 21.024 54.392C19.3173 53.9653 17.568 53.2827 15.776 52.344C13.6853 51.192 11.936 50.0613 10.528 48.952C9.12 47.8 7.968 46.392 7.072 44.728C6.21867 43.064 5.49333 40.9093 4.896 38.264L15.584 34.168L21.984 37.368C22.24 38.4773 22.5387 39.4373 22.88 40.248C25.4827 39.864 26.784 38.5627 26.784 36.344C26.784 36.0027 26.7413 35.704 26.656 35.448C26.6133 35.1493 26.5493 34.872 26.464 34.616C26.464 34.616 26.208 34.4667 25.696 34.168C25.184 33.8693 24.7147 33.6773 24.288 33.592C20.1493 32.568 16.7147 31.352 13.984 29.944C11.296 28.536 9.29067 26.744 7.968 24.568C6.688 22.392 6.048 19.64 6.048 16.312C6.048 13.496 6.70933 10.936 8.032 8.632C9.35467 6.28533 11.1893 4.38667 13.536 2.936C15.9253 1.44267 18.656 0.567998 21.728 0.311996C22.112 0.26933 22.4747 0.247997 22.816 0.247997C23.2 0.205331 23.5627 0.183998 23.904 0.183998C25.824 0.183998 27.5093 0.439997 28.96 0.951996C30.4533 1.464 32.16 2.168 34.08 3.064C36.0427 3.96 37.6853 4.96266 39.008 6.072C40.3307 7.18133 41.4187 8.568 42.272 10.232C43.168 11.8533 43.9147 13.944 44.512 16.504L34.272 20.408L27.872 17.208ZM21.408 41.016C19.7013 41.016 18.336 40.504 17.312 39.48C16.288 38.456 15.5413 36.984 15.072 35.064L5.6 38.648C6.58133 42.872 8.20267 46.0293 10.464 48.12C12.7253 50.168 15.776 51.192 19.616 51.192C19.9573 51.192 20.2987 51.192 20.64 51.192C20.9813 51.192 21.3227 51.1707 21.664 51.128C26.784 50.7013 30.752 48.9947 33.568 46.008C36.4267 43.0213 37.856 39.0107 37.856 33.976C37.856 30.392 36.8533 27.6187 34.848 25.656C32.8427 23.6933 29.8133 22.1573 25.76 21.048L20.64 19.64C19.104 19.2133 18.08 18.5947 17.568 17.784C17.0987 16.9733 16.864 16.0133 16.864 14.904C16.864 13.7947 17.2907 12.8347 18.144 12.024C18.9973 11.2133 20.128 10.744 21.536 10.616C21.7067 10.616 21.856 10.616 21.984 10.616C22.1547 10.5733 22.3253 10.552 22.496 10.552C24.0747 10.552 25.312 11 26.208 11.896C27.1467 12.7493 27.8507 14.2427 28.32 16.376L37.344 12.92C36.448 8.86666 34.912 5.85866 32.736 3.896C30.6027 1.89066 27.6587 0.887997 23.904 0.887997C23.5627 0.887997 23.2 0.887997 22.816 0.887997C22.4747 0.887997 22.1333 0.90933 21.792 0.951996C18.8053 1.208 16.1813 2.04 13.92 3.448C11.6587 4.856 9.888 6.66933 8.608 8.888C7.328 11.1067 6.688 13.5813 6.688 16.312C6.688 20.0667 7.52 23.0533 9.184 25.272C10.8907 27.4907 13.8987 29.1547 18.208 30.264L22.176 31.288C23.7973 31.7147 25.0773 32.2693 26.016 32.952C26.9547 33.6347 27.424 34.7653 27.424 36.344C27.424 39.1173 25.6533 40.6747 22.112 41.016H21.408ZM67.0975 50.68V30.584C66.5428 31.224 66.2015 31.864 66.0735 32.504V53.752L56.3455 54.648L49.9455 51.448V2.872L60.3135 1.976L66.7135 5.176V14.648C66.8415 14.648 66.9695 14.648 67.0975 14.648C67.2255 14.6053 67.3535 14.584 67.4815 14.584C67.6948 14.584 67.8868 14.584 68.0575 14.584C68.2708 14.5413 68.4842 14.52 68.6975 14.52C70.6175 14.52 72.4735 14.84 74.2655 15.48C76.1002 16.0773 77.7428 16.9307 79.1935 18.04C80.6442 19.1067 81.7962 20.408 82.6495 21.944C83.5028 23.4373 83.9295 25.08 83.9295 26.872V52.92L73.4975 53.816L67.0975 50.68ZM76.8895 23.672C76.8895 20.728 76.1002 18.5733 74.5215 17.208C72.9428 15.8427 71.0015 15.16 68.6975 15.16C68.5268 15.16 68.3348 15.16 68.1215 15.16C67.9508 15.16 67.7588 15.1813 67.5455 15.224C65.5402 15.3947 63.8762 16.056 62.5535 17.208C61.2735 18.3173 60.3988 19.5973 59.9295 21.048H59.6735V2.68L50.5855 3.448V50.808L59.6735 50.04V29.24C59.8868 28.1733 60.3988 27.2133 61.2095 26.36C62.0202 25.5067 63.0228 25.0373 64.2175 24.952H64.6015C65.4975 24.952 66.2442 25.272 66.8415 25.912C67.4388 26.5093 67.7375 27.4907 67.7375 28.856V49.976L76.8895 49.144V23.672ZM125.082 42.424C123.93 46.008 122.223 48.9093 119.962 51.128C117.743 53.3467 114.714 54.6267 110.874 54.968C110.404 55.0107 109.935 55.032 109.466 55.032C109.039 55.0747 108.591 55.096 108.122 55.096C104.41 55.096 101.06 54.328 98.0735 52.792C95.1295 51.2987 92.7828 49.0373 91.0335 46.008C89.2842 42.9787 88.4095 39.224 88.4095 34.744C88.4095 30.8187 89.0708 27.4267 90.3935 24.568C91.7588 21.7093 93.5935 19.4693 95.8975 17.848C98.2442 16.184 100.911 15.224 103.898 14.968C104.196 14.9253 104.495 14.904 104.794 14.904C105.135 14.904 105.455 14.904 105.753 14.904C108.143 14.904 110.49 15.3307 112.794 16.184C115.14 16.9947 117.252 18.2747 119.13 20.024C121.05 21.7733 122.564 24.0347 123.674 26.808C124.826 29.5387 125.402 32.824 125.402 36.664C125.402 37.0053 125.402 37.368 125.402 37.752C125.402 38.0933 125.38 38.4347 125.338 38.776L118.618 39.352L125.082 42.424ZM109.978 37.496C109.594 38.9467 108.89 40.1413 107.866 41.08C106.842 42.0187 105.519 42.5733 103.898 42.744H103.385C101.935 42.744 100.74 42.2107 99.8015 41.144C98.8628 40.0773 98.3935 38.6053 98.3935 36.728L118.298 35C118.34 34.5733 118.362 34.168 118.362 33.784C118.362 33.3573 118.362 32.952 118.362 32.568C118.362 27.192 117.21 23.0107 114.906 20.024C112.602 17.0373 109.423 15.544 105.37 15.544C105.156 15.544 104.922 15.544 104.666 15.544C104.452 15.544 104.218 15.5653 103.962 15.608C101.103 15.8213 98.5428 16.7387 96.2815 18.36C94.0202 19.9387 92.2495 22.1147 90.9695 24.888C89.6895 27.6613 89.0495 30.9467 89.0495 34.744C89.0495 40.248 90.2868 44.3653 92.7615 47.096C95.2362 49.8267 98.5215 51.192 102.618 51.192C102.916 51.192 103.215 51.192 103.514 51.192C103.812 51.192 104.111 51.1707 104.41 51.128C108.079 50.8293 110.98 49.6347 113.114 47.544C115.29 45.4533 116.847 42.8507 117.786 39.736L109.978 37.496ZM98.7135 29.56C98.7135 28.152 99.2042 26.936 100.186 25.912C101.167 24.888 102.426 24.312 103.962 24.184H104.538C105.818 24.184 106.863 24.568 107.674 25.336C108.527 26.0613 108.954 27.1707 108.954 28.664L98.7135 29.56ZM103.898 40.696C103.898 40.9093 103.983 41.1227 104.154 41.336C104.367 41.5493 104.58 41.7627 104.794 41.976C105.562 41.7627 106.159 41.5067 106.586 41.208C107.012 40.9093 107.375 40.6107 107.674 40.312L103.898 40.696ZM153.563 52.344C152.88 52.8987 152.07 53.3893 151.131 53.816C150.235 54.2427 149.168 54.4987 147.931 54.584C147.59 54.6267 147.227 54.648 146.843 54.648C146.459 54.648 146.096 54.648 145.755 54.648C142.342 54.648 139.312 53.9227 136.667 52.472C134.064 51.064 132.016 48.8453 130.523 45.816C129.072 42.7867 128.347 38.8613 128.347 34.04C128.347 27.9813 129.499 23.3093 131.803 20.024C134.15 16.7387 137.435 14.904 141.659 14.52C141.83 14.52 141.979 14.52 142.107 14.52C142.278 14.4773 142.448 14.456 142.619 14.456C143.814 14.456 144.838 14.584 145.691 14.84C146.544 15.096 147.312 15.3307 147.995 15.544V1.336L158.427 0.439999L164.827 3.64V52.344L155.035 53.112L153.563 52.344ZM148.635 1.912V17.912L148.443 17.976C148.144 17.1227 147.483 16.44 146.459 15.928C145.435 15.3733 144.155 15.096 142.619 15.096C142.491 15.096 142.342 15.1173 142.171 15.16C142.043 15.16 141.894 15.16 141.723 15.16C137.67 15.544 134.534 17.336 132.315 20.536C130.096 23.6933 128.987 28.1947 128.987 34.04C128.987 39.672 130.011 43.896 132.059 46.712C134.15 49.4853 136.944 50.872 140.443 50.872C140.656 50.872 140.848 50.872 141.019 50.872C141.232 50.872 141.424 50.8507 141.595 50.808C143.6 50.5947 145.222 49.976 146.459 48.952C147.696 47.8853 148.571 46.6907 149.083 45.368L149.275 45.432V49.272L157.787 48.568V1.144L148.635 1.912ZM143.259 42.36C141.894 42.36 140.72 41.656 139.739 40.248C138.8 38.7973 138.331 36.4507 138.331 33.208C138.331 29.9653 138.779 27.6187 139.675 26.168C140.571 24.7173 141.936 23.9067 143.771 23.736H144.347C145.456 23.736 146.395 24.0133 147.163 24.568C147.931 25.1227 148.422 25.848 148.635 26.744V35.576C148.635 37.496 148.166 39.0747 147.227 40.312C146.331 41.5493 145.136 42.232 143.643 42.36H143.259ZM147.995 28.28C147.056 28.408 146.374 29.0907 145.947 30.328C145.563 31.5653 145.371 33.592 145.371 36.408C145.371 37.304 145.392 38.1573 145.435 38.968C145.478 39.736 145.606 40.376 145.819 40.888C147.27 39.6933 147.995 37.9227 147.995 35.576V28.28ZM192.773 52.792C192.303 53.2187 191.557 53.624 190.533 54.008C189.551 54.392 188.485 54.6267 187.333 54.712C187.119 54.7547 186.885 54.776 186.628 54.776C186.373 54.776 186.138 54.776 185.925 54.776C184.218 54.776 182.469 54.5413 180.677 54.072C178.927 53.6453 177.306 52.9413 175.812 51.96C174.319 51.0213 173.103 49.784 172.165 48.248C171.269 46.6693 170.821 44.792 170.821 42.616V16.44L181.253 15.544L187.013 18.36V39.672C187.226 39.4587 187.418 39.3307 187.589 39.288C187.802 39.2027 187.994 39.0107 188.165 38.712V15.544L198.533 14.648L204.933 17.848V53.048L195.077 53.88L192.773 52.792ZM188.805 16.12V38.84C188.378 39.6507 187.802 40.312 187.077 40.824C186.394 41.2933 185.455 41.592 184.26 41.72H183.941C183.045 41.72 182.255 41.4213 181.573 40.824C180.933 40.2267 180.613 39.2027 180.613 37.752V16.248L171.461 17.016V42.616C171.461 45.56 172.271 47.6933 173.893 49.016C175.514 50.3387 177.519 51 179.909 51H181.125C183.173 50.7867 184.922 50.1467 186.373 49.08C187.866 47.9707 188.783 46.6267 189.125 45.048L189.317 45.112V50.04L197.893 49.272V15.352L188.805 16.12ZM211.266 50.808V2.168L221.954 1.272L228.354 4.472V53.112L217.666 53.944L211.266 50.808ZM211.906 2.744V50.104L221.314 49.336V1.976L211.906 2.744ZM269.769 42.424C268.617 46.008 266.91 48.9093 264.649 51.128C262.43 53.3467 259.401 54.6267 255.561 54.968C255.092 55.0107 254.622 55.032 254.153 55.032C253.726 55.0747 253.278 55.096 252.809 55.096C249.097 55.096 245.748 54.328 242.761 52.792C239.817 51.2987 237.47 49.0373 235.721 46.008C233.972 42.9787 233.097 39.224 233.097 34.744C233.097 30.8187 233.758 27.4267 235.081 24.568C236.446 21.7093 238.281 19.4693 240.585 17.848C242.932 16.184 245.598 15.224 248.585 14.968C248.884 14.9253 249.182 14.904 249.481 14.904C249.822 14.904 250.142 14.904 250.441 14.904C252.83 14.904 255.177 15.3307 257.481 16.184C259.828 16.9947 261.94 18.2747 263.817 20.024C265.737 21.7733 267.252 24.0347 268.361 26.808C269.513 29.5387 270.089 32.824 270.089 36.664C270.089 37.0053 270.089 37.368 270.089 37.752C270.089 38.0933 270.068 38.4347 270.025 38.776L263.305 39.352L269.769 42.424ZM254.665 37.496C254.281 38.9467 253.577 40.1413 252.553 41.08C251.529 42.0187 250.206 42.5733 248.585 42.744H248.073C246.622 42.744 245.428 42.2107 244.489 41.144C243.55 40.0773 243.081 38.6053 243.081 36.728L262.985 35C263.028 34.5733 263.049 34.168 263.049 33.784C263.049 33.3573 263.049 32.952 263.049 32.568C263.049 27.192 261.897 23.0107 259.593 20.024C257.289 17.0373 254.11 15.544 250.057 15.544C249.844 15.544 249.609 15.544 249.353 15.544C249.14 15.544 248.905 15.5653 248.649 15.608C245.79 15.8213 243.23 16.7387 240.969 18.36C238.708 19.9387 236.937 22.1147 235.657 24.888C234.377 27.6613 233.737 30.9467 233.737 34.744C233.737 40.248 234.974 44.3653 237.449 47.096C239.924 49.8267 243.209 51.192 247.305 51.192C247.604 51.192 247.902 51.192 248.201 51.192C248.5 51.192 248.798 51.1707 249.097 51.128C252.766 50.8293 255.668 49.6347 257.801 47.544C259.977 45.4533 261.534 42.8507 262.473 39.736L254.665 37.496ZM243.401 29.56C243.401 28.152 243.892 26.936 244.873 25.912C245.854 24.888 247.113 24.312 248.649 24.184H249.225C250.505 24.184 251.55 24.568 252.361 25.336C253.214 26.0613 253.641 27.1707 253.641 28.664L243.401 29.56ZM248.585 40.696C248.585 40.9093 248.67 41.1227 248.841 41.336C249.054 41.5493 249.268 41.7627 249.481 41.976C250.249 41.7627 250.846 41.5067 251.273 41.208C251.7 40.9093 252.062 40.6107 252.361 40.312L248.585 40.696Z" fill="white"/>
</g>
<defs>
<filter id="filter0_d_2_10" x="0.895996" y="0.184021" width="273.193" height="62.912" filterUnits="userSpaceOnUse" color-interpolation-filters="sRGB">
<feFlood flood-opacity="0" result="BackgroundImageFix"/>
<feColorMatrix in="SourceAlpha" type="matrix" values="0 0 0 0 0 0 0 0 0 0 0 0 0 0 0 0 0 0 127 0" result="hardAlpha"/>
<feOffset dy="4"/>
<feGaussianBlur stdDeviation="2"/>
<feComposite in2="hardAlpha" operator="out"/>
<feColorMatrix type="matrix" values="0 0 0 0 0 0 0 0 0 0 0 0 0 0 0 0 0 0 0.34 0"/>
<feBlend mode="normal" in2="BackgroundImageFix" result="effect1_dropShadow_2_10"/>
<feBlend mode="normal" in="SourceGraphic" in2="effect1_dropShadow_2_10" result="shape"/>
</filter>
</defs>
</svg>
